<svg width="1200" height="630" xmlns="http://www.w3.org/2000/svg">
  <defs>
    <linearGradient id="bg" x1="0%" y1="0%" x2="100%" y2="100%">
      <stop offset="0%" style="stop-color:#0F1B2D"/>
      <stop offset="100%" style="stop-color:#243B5C"/>
    </linearGradient>
  </defs>
  <rect width="1200" height="630" fill="url(#bg)"/>
  <!-- Teal accent circle -->
  <circle cx="1050" cy="150" r="200" fill="#2DD4BF" opacity="0.08"/>
  <!-- Heart icon -->
  <g transform="translate(80, 200)">
    <rect width="64" height="64" rx="16" fill="#2DD4BF"/>
    <path d="M32 50c0 0-18-12-18-22a8 8 0 0 1 8-8c4 0 7 2 10 6c3-4 6-6 10-6a8 8 0 0 1 8 8c0 10-18 22-18 22z" fill="#0F1B2D"/>
  </g>
  <!-- Title -->
  <text x="80" y="320" font-family="Georgia, serif" font-size="52" fill="white" font-weight="bold">Every prayer heard.</text>
  <text x="80" y="385" font-family="Georgia, serif" font-size="52" fill="#2DD4BF" font-weight="bold">Every soul cared for.</text>
  <!-- Subtitle -->
  <text x="80" y="440" font-family="Arial, sans-serif" font-size="22" fill="rgba(255,255,255,0.5)">AI-powered prayer &amp; counseling platform for churches</text>
  <!-- URL -->
  <text x="80" y="560" font-family="Arial, sans-serif" font-size="20" fill="#2DD4BF" font-weight="bold">reachthesoul.org</text>
  <!-- Stats -->
  <text x="500" y="560" font-family="Arial, sans-serif" font-size="16" fill="rgba(255,255,255,0.3)">WhatsApp · Instagram · Facebook · AI Auto-Reply · 24/7</text>
</svg>
